# xmcd
#
# Track frame offsets: 
#        150
#        18075
#        50450
#        88725
#        105825
#        133675
#        149075
#
# Disc length: 2296 seconds
#
# Revision: 2
# Processed by: cddbd v1.5.1PL2 Copyright (c) Steve Scherf et al.
# Submitted via: ExactAudioCopy v0.95b4
#
DISCID=5708f607
DTITLE=Cornelius Claudio Kreusch - Talking to a Goblin
DYEAR=1990
DGENRE=Jazz
TTITLE0=Cantus
TTITLE1=Stella Backstage
TTITLE2=Taiga
TTITLE3=Preludio para Riccarda
TTITLE4=Piece for Paul Bley
TTITLE5=One Way in Harlem
TTITLE6=Somewhere Over the Rainbow - Song for Lila
EXTD=YEAR: 1990
EXTT0=
EXTT1=
EXTT2=
EXTT3=
EXTT4=
EXTT5=
EXTT6=
PLAYORDER=
